<?xml version="1.0" encoding="UTF-8"?>
<svg width="148px" height="54px" viewBox="0 0 148 54" version="1.1" xmlns="http://www.w3.org/2000/svg" xmlns:xlink="http://www.w3.org/1999/xlink">
    <title>Artboard</title>
    <defs>
        <path d="M54.5446997,28.1648352 C56.2467449,28.1648352 57.5419143,27.8573489 58.4302079,27.2423764 C59.3185016,26.6274038 59.7626484,25.748428 59.7626484,24.6054487 C59.7626484,23.797909 59.5514457,23.1177121 59.1290404,22.5648581 C58.706635,22.012004 58.1227217,21.6175519 57.3773004,21.3815018 C57.9239427,21.095757 58.349454,20.7044109 58.6538343,20.2074634 C58.9582147,19.7105159 59.1104048,19.1452381 59.1104048,18.51163 C59.1104048,17.4680403 58.6848935,16.6418651 57.8338709,16.0331044 C56.9828484,15.4243437 55.7622211,15.1199634 54.1719891,15.1199634 L54.1719891,15.1199634 L47.7986374,15.1199634 L47.7986374,28.1648352 L54.5446997,28.1648352 Z M53.7992785,20.4683608 L50.7989579,20.4683608 L50.7989579,17.3934982 L53.7992785,17.3934982 C54.5446997,17.3934982 55.1099775,17.520841 55.4951118,17.7755266 C55.8802461,18.0302121 56.0728132,18.4122405 56.0728132,18.9216117 C56.0728132,19.4309829 55.8802461,19.8161172 55.4951118,20.0770147 C55.1099775,20.3379121 54.5446997,20.4683608 53.7992785,20.4683608 L53.7992785,20.4683608 Z M54.3210733,25.8913004 L50.7989579,25.8913004 L50.7989579,22.6673535 L54.3210733,22.6673535 C55.923729,22.6673535 56.7250568,23.2077839 56.7250568,24.2886447 C56.7250568,24.8352869 56.5231719,25.2390568 56.1194021,25.4999542 C55.7156322,25.7608516 55.1161893,25.8913004 54.3210733,25.8913004 L54.3210733,25.8913004 Z M64.7569708,28.1648352 L64.7569708,14.3372711 L61.8498279,14.3372711 L61.8498279,28.1648352 L64.7569708,28.1648352 Z M71.6893883,28.3139194 C72.3105727,28.3139194 72.8882742,28.1990003 73.4224927,27.9691621 C73.9567113,27.7393239 74.4163877,27.4069902 74.801522,26.9721612 L74.801522,26.9721612 L74.801522,28.1648352 L77.5595806,28.1648352 L77.5595806,18.1389194 L74.6524378,18.1389194 L74.6524378,23.0959707 C74.6524378,23.9904762 74.4412351,24.6644612 74.0188297,25.1179258 C73.5964244,25.5713904 73.0373584,25.7981227 72.3416319,25.7981227 C70.98745,25.7981227 70.310359,24.990583 70.310359,23.3755037 L70.310359,23.3755037 L70.310359,18.1389194 L67.4032162,18.1389194 L67.4032162,23.8041209 C67.4032162,25.2949634 67.7883505,26.4193071 68.5586191,27.177152 C69.3288877,27.9349969 70.3724775,28.3139194 71.6893883,28.3139194 Z M85.2374195,28.3139194 C87.0512778,28.3139194 88.4303071,27.773489 89.3745074,26.6926282 L89.3745074,26.6926282 L87.8277583,25.0154304 C87.4798951,25.35087 87.1040785,25.5962378 86.7003087,25.7515339 C86.2965388,25.90683 85.8337565,25.984478 85.3119616,25.984478 C84.5541167,25.984478 83.9205086,25.8043346 83.4111374,25.4440476 C82.9017662,25.0837607 82.5787504,24.593025 82.4420898,23.9718407 L82.4420898,23.9718407 L90.026751,23.9718407 C90.064022,23.4873168 90.0826576,23.2264194 90.0826576,23.1891484 C90.0826576,22.1455586 89.8559253,21.2293117 89.4024607,20.4404075 C88.9489961,19.6515034 88.3247058,19.0458486 87.5295898,18.6234432 C86.7344738,18.2010379 85.8461802,17.9898352 84.8647089,17.9898352 C83.8583902,17.9898352 82.9483551,18.2103556 82.1346035,18.6513965 C81.320852,19.0924374 80.6810321,19.70741 80.2151438,20.4963141 C79.7492556,21.2852183 79.5163114,22.170406 79.5163114,23.1518773 C79.5163114,24.1457723 79.7523615,25.0340659 80.2244616,25.8167582 C80.6965617,26.5994505 81.3674408,27.2113172 82.237099,27.6523581 C83.1067571,28.093399 84.1068639,28.3139194 85.2374195,28.3139194 Z M87.3432345,22.2760073 L82.4048187,22.2760073 C82.5042082,21.6299756 82.7775294,21.1206044 83.2247821,20.7478938 C83.6720349,20.3751832 84.224889,20.1888278 84.8833444,20.1888278 C85.5293761,20.1888278 86.0760184,20.3782891 86.5232711,20.7572115 C86.9705239,21.136134 87.243845,21.6423993 87.3432345,22.2760073 L87.3432345,22.2760073 Z M97.9468517,28.3139194 C98.8786283,28.3139194 99.7265449,28.0996108 100.490602,27.6709936 C101.254658,27.2423764 101.854101,26.6398275 102.28893,25.8633471 C102.72376,25.0868666 102.941174,24.1830433 102.941174,23.1518773 C102.941174,22.1207112 102.72376,21.216888 102.28893,20.4404075 C101.854101,19.663927 101.254658,19.0613782 100.490602,18.632761 C99.7265449,18.2041438 98.8786283,17.9898352 97.9468517,17.9898352 C96.6672119,17.9898352 95.6608932,18.393605 94.9278957,19.2011447 L94.9278957,19.2011447 L94.9278957,14.3372711 L92.0207528,14.3372711 L92.0207528,28.1648352 L94.7974469,28.1648352 L94.7974469,27.0094322 C95.5180208,27.8790904 96.5678224,28.3139194 97.9468517,28.3139194 Z M97.4436924,25.9285714 C96.6982711,25.9285714 96.0864045,25.6769918 95.6080926,25.1738324 C95.1297806,24.6706731 94.8906246,23.996688 94.8906246,23.1518773 C94.8906246,22.3070665 95.1297806,21.6330815 95.6080926,21.1299222 C96.0864045,20.6267628 96.6982711,20.3751832 97.4436924,20.3751832 C98.1891136,20.3751832 98.8009802,20.6267628 99.2792922,21.1299222 C99.7576042,21.6330815 99.9967601,22.3070665 99.9967601,23.1518773 C99.9967601,23.996688 99.7576042,24.6706731 99.2792922,25.1738324 C98.8009802,25.6769918 98.1891136,25.9285714 97.4436924,25.9285714 Z M109.854956,28.3139194 C111.668814,28.3139194 113.047844,27.773489 113.992044,26.6926282 L113.992044,26.6926282 L112.445295,25.0154304 C112.097432,25.35087 111.721615,25.5962378 111.317845,25.7515339 C110.914075,25.90683 110.451293,25.984478 109.929498,25.984478 C109.171653,25.984478 108.538045,25.8043346 108.028674,25.4440476 C107.519303,25.0837607 107.196287,24.593025 107.059626,23.9718407 L107.059626,23.9718407 L114.644288,23.9718407 C114.681559,23.4873168 114.700194,23.2264194 114.700194,23.1891484 C114.700194,22.1455586 114.473462,21.2293117 114.019997,20.4404075 C113.566533,19.6515034 112.942242,19.0458486 112.147126,18.6234432 C111.35201,18.2010379 110.463717,17.9898352 109.482245,17.9898352 C108.475927,17.9898352 107.565892,18.2103556 106.75214,18.6513965 C105.938389,19.0924374 105.298569,19.70741 104.83268,20.4963141 C104.366792,21.2852183 104.133848,22.170406 104.133848,23.1518773 C104.133848,24.1457723 104.369898,25.0340659 104.841998,25.8167582 C105.314098,26.5994505 105.984977,27.2113172 106.854636,27.6523581 C107.724294,28.093399 108.724401,28.3139194 109.854956,28.3139194 Z M111.960771,22.2760073 L107.022355,22.2760073 C107.121745,21.6299756 107.395066,21.1206044 107.842319,20.7478938 C108.289571,20.3751832 108.842426,20.1888278 109.500881,20.1888278 C110.146913,20.1888278 110.693555,20.3782891 111.140808,20.7572115 C111.588061,21.136134 111.861382,21.6423993 111.960771,22.2760073 L111.960771,22.2760073 Z M119.545432,28.1648352 L119.545432,23.4314103 C119.545432,22.4996337 119.781482,21.8008013 120.253582,21.334913 C120.725683,20.8690247 121.377926,20.6360806 122.210313,20.6360806 C122.322126,20.6360806 122.539541,20.6485043 122.862557,20.6733516 L122.862557,20.6733516 L122.862557,17.9898352 C122.092288,17.9898352 121.412091,18.114072 120.821966,18.3625458 C120.231841,18.6110195 119.762847,18.9775183 119.414984,19.4620421 L119.414984,19.4620421 L119.414984,18.1389194 L116.638289,18.1389194 L116.638289,28.1648352 L119.545432,28.1648352 Z M127.502804,28.1648352 L127.502804,23.4314103 C127.502804,22.4996337 127.738854,21.8008013 128.210954,21.334913 C128.683054,20.8690247 129.335298,20.6360806 130.167685,20.6360806 C130.279498,20.6360806 130.496913,20.6485043 130.819929,20.6733516 L130.819929,20.6733516 L130.819929,17.9898352 C130.04966,17.9898352 129.369463,18.114072 128.779338,18.3625458 C128.189213,18.6110195 127.720219,18.9775183 127.372355,19.4620421 L127.372355,19.4620421 L127.372355,18.1389194 L124.595661,18.1389194 L124.595661,28.1648352 L127.502804,28.1648352 Z M134.174324,31.9292125 C135.130948,31.9292125 135.947806,31.6931624 136.624897,31.2210623 C137.301988,30.7489621 137.870371,29.9352106 138.330048,28.7798077 L138.330048,28.7798077 L142.858482,18.1389194 L140.063152,18.1389194 L137.230551,24.9408883 L134.416586,18.1389194 L131.416266,18.1389194 L135.758344,28.2393773 L135.721073,28.3325549 C135.522294,28.7798077 135.298668,29.0997176 135.050194,29.2922848 C134.80172,29.484852 134.478705,29.5811355 134.081147,29.5811355 C133.795402,29.5811355 133.506551,29.5252289 133.214594,29.4134158 C132.922638,29.3016026 132.664846,29.1463065 132.44122,28.9475275 L132.44122,28.9475275 L131.378995,31.0160714 C131.70201,31.3018162 132.118204,31.5254426 132.627575,31.6869505 C133.136946,31.8484585 133.652529,31.9292125 134.174324,31.9292125 Z" id="path-1"></path>
        <path d="M51.0556887,45.4450549 L51.0556887,41.8483974 L53.6832986,41.8483974 C54.8387015,41.8483974 55.8419143,41.6589362 56.6929369,41.2800137 C57.5439595,40.9010913 58.199309,40.354449 58.6589854,39.640087 C59.1186618,38.925725 59.3485001,38.090232 59.3485001,37.1336081 C59.3485001,36.1645604 59.1186618,35.3259615 58.6589854,34.6178114 C58.199309,33.9096612 57.5439595,33.3630189 56.6929369,32.9778846 C55.8419143,32.5927503 54.8387015,32.4001832 53.6832986,32.4001832 L48.0367327,32.4001832 L48.0367327,45.4450549 L51.0556887,45.4450549 Z M51.0556887,39.3885073 L51.0556887,34.8600733 L53.5155788,34.8600733 C54.422508,34.8600733 55.1120227,35.0557463 55.5841228,35.4470925 C56.0562229,35.8384386 56.292273,36.4006105 56.292273,37.1336081 C56.292273,37.8541819 56.0562229,38.4101419 55.5841228,38.8014881 C55.1120227,39.1928342 54.422508,39.3885073 53.5155788,39.3885073 L51.0556887,39.3885073 Z M66.2436466,45.5941392 C68.0575049,45.5941392 69.4365343,45.0537088 70.3807345,43.972848 L68.8339854,42.2956502 C68.4861222,42.6310897 68.1103056,42.8764576 67.7065358,43.0317537 C67.3027659,43.1870498 66.8399836,43.2646978 66.3181887,43.2646978 C65.5603438,43.2646978 64.9267357,43.0845543 64.4173645,42.7242674 C63.9079933,42.3639805 63.5849775,41.8732448 63.4483169,41.2520604 L71.0329781,41.2520604 C71.0702491,40.7675366 71.0888847,40.5066392 71.0888847,40.4693681 C71.0888847,39.4257784 70.8621524,38.5095314 70.4086878,37.7206273 C69.9552232,36.9317231 69.3309329,36.3260684 68.5358169,35.903663 C67.7407009,35.4812576 66.8524073,35.2700549 65.870936,35.2700549 C64.8646173,35.2700549 63.9545822,35.4905754 63.1408306,35.9316163 C62.3270791,36.3726572 61.6872592,36.9876297 61.2213709,37.7765339 C60.7554827,38.565438 60.5225385,39.4506258 60.5225385,40.4320971 C60.5225385,41.4259921 60.7585886,42.3142857 61.2306887,43.096978 C61.7027888,43.8796703 62.373668,44.4915369 63.2433261,44.9325778 C64.1129842,45.3736187 65.113091,45.5941392 66.2436466,45.5941392 Z M63.4110459,39.5562271 C63.5104354,38.9101954 63.7837565,38.4008242 64.2310092,38.0281136 C64.678262,37.6554029 65.2311161,37.4690476 65.8895715,37.4690476 C66.5356032,37.4690476 67.0822455,37.6585089 67.5294982,38.0374313 C67.976751,38.4163538 68.2500721,38.922619 68.3494616,39.5562271 L63.4110459,39.5562271 Z M77.3317876,45.5941392 C78.6983932,45.5941392 79.741983,45.1593101 80.4625568,44.289652 L80.4625568,45.4450549 L83.239251,45.4450549 L83.239251,31.6174908 L80.3321081,31.6174908 L80.3321081,36.4813645 C79.6115343,35.6738248 78.6114274,35.2700549 77.3317876,35.2700549 C76.3875874,35.2700549 75.5334589,35.4812576 74.7694021,35.903663 C74.0053453,36.3260684 73.4059024,36.9286172 72.9710733,37.7113095 C72.5362443,38.4940018 72.3188297,39.400931 72.3188297,40.4320971 C72.3188297,41.4632631 72.5362443,42.3701923 72.9710733,43.1528846 C73.4059024,43.9355769 74.0053453,44.5381258 74.7694021,44.9605311 C75.5334589,45.3829365 76.3875874,45.5941392 77.3317876,45.5941392 Z M77.8349469,43.2087912 C77.0895257,43.2087912 76.4745532,42.9572115 75.9900294,42.4540522 C75.5055056,41.9508929 75.2632437,41.2769078 75.2632437,40.4320971 C75.2632437,39.5872863 75.5055056,38.9133013 75.9900294,38.4101419 C76.4745532,37.9069826 77.0895257,37.6554029 77.8349469,37.6554029 C78.5679445,37.6554029 79.1767052,37.9069826 79.661229,38.4101419 C80.1457528,38.9133013 80.3880147,39.5872863 80.3880147,40.4320971 C80.3880147,41.2769078 80.1457528,41.9508929 79.661229,42.4540522 C79.1767052,42.9572115 78.5679445,43.2087912 77.8349469,43.2087912 Z M87.3763389,34.0214744 C87.9105575,34.0214744 88.3453865,33.8630723 88.6808261,33.5462683 C89.0162656,33.2294643 89.1839854,32.8288004 89.1839854,32.3442766 C89.1839854,31.8970238 89.0162656,31.5243132 88.6808261,31.2261447 C88.3453865,30.9279762 87.9105575,30.7788919 87.3763389,30.7788919 C86.8421203,30.7788919 86.4072913,30.934188 86.0718517,31.2447802 C85.7364122,31.5553724 85.5686924,31.9405067 85.5686924,32.4001832 C85.5686924,32.8598596 85.7364122,33.2449939 86.0718517,33.5555861 C86.4072913,33.8661783 86.8421203,34.0214744 87.3763389,34.0214744 Z M88.8299103,45.4450549 L88.8299103,35.4191392 L85.9227675,35.4191392 L85.9227675,45.4450549 L88.8299103,45.4450549 Z M94.6255605,45.5941392 C96.116403,45.5941392 97.1351454,45.1282509 97.6817876,44.1964744 L97.6817876,45.4450549 L100.402575,45.4450549 L100.402575,39.7239469 C100.402575,38.2331044 99.9863816,37.1180784 99.1539946,36.378869 C98.3216075,35.6396596 97.1289335,35.2700549 95.5759726,35.2700549 C94.7684329,35.2700549 93.9826347,35.3756563 93.2185779,35.586859 C92.4545211,35.7980617 91.7991716,36.0962302 91.2525294,36.4813645 L92.2961191,38.5126374 C92.656406,38.2268926 93.094341,38.0001603 93.6099241,37.8324405 C94.1255071,37.6647207 94.6504079,37.5808608 95.1846264,37.5808608 C95.9548951,37.5808608 96.5325965,37.7516865 96.9177308,38.0933379 C97.3028651,38.4349893 97.4954323,38.922619 97.4954323,39.5562271 L95.1846264,39.5562271 C93.7186313,39.5562271 92.6346646,39.8233364 91.9327263,40.3575549 C91.2307879,40.8917735 90.8798187,41.6247711 90.8798187,42.5565476 C90.8798187,43.1404609 91.028903,43.6622558 91.3270715,44.1219322 C91.62524,44.5816087 92.0569631,44.9418956 92.6222409,45.202793 C93.1875187,45.4636905 93.8552919,45.5941392 94.6255605,45.5941392 Z M95.3523462,43.6374084 C94.842975,43.6374084 94.4423111,43.5287012 94.1503545,43.3112866 C93.8583978,43.0938721 93.7124195,42.7988095 93.7124195,42.4260989 C93.7124195,41.6434066 94.3087565,41.2520604 95.5014305,41.2520604 L97.4954323,41.2520604 L97.4954323,42.2770147 C97.3339244,42.7242674 97.0606032,43.0628129 96.6754689,43.2926511 C96.2903346,43.5224893 95.8492937,43.6374084 95.3523462,43.6374084 Z M107.130002,45.5941392 C107.589678,45.5941392 108.027613,45.5413385 108.443807,45.4357372 C108.86,45.3301358 109.21097,45.1717338 109.496714,44.9605311 L108.714022,42.9106227 C108.391006,43.1590965 107.99966,43.2833333 107.539984,43.2833333 C107.142426,43.2833333 106.834939,43.1684142 106.617525,42.938576 C106.40011,42.7087378 106.291403,42.382616 106.291403,41.9602106 L106.291403,37.8790293 L108.788564,37.8790293 L108.788564,35.6427656 L106.291403,35.6427656 L106.291403,33.201511 L103.38426,33.201511 L103.38426,35.6427656 L101.837511,35.6427656 L101.837511,37.8790293 L103.38426,37.8790293 L103.38426,41.9974817 C103.38426,43.177732 103.710382,44.0722375 104.362626,44.6809982 C105.014869,45.2897589 105.937328,45.5941392 107.130002,45.5941392 Z M114.043784,45.4450549 L114.043784,40.71163 C114.043784,39.7798535 114.279834,39.0810211 114.751934,38.6151328 C115.224034,38.1492445 115.876278,37.9163004 116.708665,37.9163004 C116.820478,37.9163004 117.037893,37.9287241 117.360908,37.9535714 L117.360908,35.2700549 C116.59064,35.2700549 115.910443,35.3942918 115.320318,35.6427656 C114.730193,35.8912393 114.261198,36.2577381 113.913335,36.7422619 L113.913335,35.4191392 L111.136641,35.4191392 L111.136641,45.4450549 L114.043784,45.4450549 Z M120.547584,34.0214744 C121.081803,34.0214744 121.516632,33.8630723 121.852071,33.5462683 C122.187511,33.2294643 122.355231,32.8288004 122.355231,32.3442766 C122.355231,31.8970238 122.187511,31.5243132 121.852071,31.2261447 C121.516632,30.9279762 121.081803,30.7788919 120.547584,30.7788919 C120.013366,30.7788919 119.578537,30.934188 119.243097,31.2447802 C118.907658,31.5553724 118.739938,31.9405067 118.739938,32.4001832 C118.739938,32.8598596 118.907658,33.2449939 119.243097,33.5555861 C119.578537,33.8661783 120.013366,34.0214744 120.547584,34.0214744 Z M122.001156,45.4450549 L122.001156,35.4191392 L119.094013,35.4191392 L119.094013,45.4450549 L122.001156,45.4450549 Z M129.548546,45.5941392 C130.604559,45.5941392 131.527018,45.3705128 132.315922,44.9232601 C133.104826,44.4760073 133.679422,43.854823 134.039709,43.059707 L131.78481,41.8297619 C131.275438,42.7491148 130.523805,43.2087912 129.52991,43.2087912 C128.772065,43.2087912 128.144669,42.9603175 127.647722,42.46337 C127.150774,41.9664225 126.9023,41.2893315 126.9023,40.4320971 C126.9023,39.5748626 127.150774,38.8977717 127.647722,38.4008242 C128.144669,37.9038767 128.772065,37.6554029 129.52991,37.6554029 C130.511382,37.6554029 131.263015,38.1150794 131.78481,39.0344322 L134.039709,37.8231227 C133.679422,37.0031593 133.104826,36.3726572 132.315922,35.9316163 C131.527018,35.4905754 130.604559,35.2700549 129.548546,35.2700549 C128.480109,35.2700549 127.520379,35.4905754 126.669356,35.9316163 C125.818334,36.3726572 125.153666,36.9845238 124.675354,37.7672161 C124.197042,38.5499084 123.957887,39.4382021 123.957887,40.4320971 C123.957887,41.4259921 124.197042,42.3142857 124.675354,43.096978 C125.153666,43.8796703 125.818334,44.4915369 126.669356,44.9325778 C127.520379,45.3736187 128.480109,45.5941392 129.548546,45.5941392 Z M139.089938,45.5941392 C140.071409,45.5941392 140.919326,45.4605846 141.633688,45.1934753 C142.34805,44.926366 142.891586,44.5505495 143.264297,44.0660256 C143.637007,43.5815018 143.823363,43.0286477 143.823363,42.4074634 C143.823363,41.6744658 143.630796,41.1029762 143.245661,40.6929945 C142.860527,40.2830128 142.407062,40.0003739 141.885267,39.8450778 C141.363473,39.6897817 140.692593,39.5438034 139.87263,39.4071429 C139.139633,39.2953297 138.605414,39.1773046 138.269974,39.0530678 C137.934535,38.9288309 137.766815,38.7114164 137.766815,38.4008242 C137.766815,38.1275031 137.922111,37.9038767 138.232703,37.7299451 C138.543296,37.5560134 139.009184,37.4690476 139.630368,37.4690476 C140.673958,37.4690476 141.636794,37.7175214 142.518876,38.2144689 L143.487923,36.1459249 C143.028247,35.8726038 142.447439,35.6582952 141.745501,35.5029991 C141.043563,35.347703 140.338518,35.2700549 139.630368,35.2700549 C138.673744,35.2700549 137.844463,35.4067155 137.142525,35.6800366 C136.440586,35.9533578 135.906368,36.3353861 135.539869,36.8261218 C135.17337,37.3168574 134.990121,37.8790293 134.990121,38.5126374 C134.990121,39.2704823 135.185794,39.8543956 135.57714,40.2643773 C135.968486,40.674359 136.431269,40.9601038 136.965487,41.1216117 C137.499706,41.2831197 138.176797,41.4259921 138.99676,41.5502289 C139.692487,41.6371947 140.20807,41.7427961 140.543509,41.867033 C140.878949,41.9912698 141.046669,42.1962607 141.046669,42.4820055 C141.046669,43.0907662 140.431696,43.3951465 139.201751,43.3951465 C138.59299,43.3951465 137.971806,43.3050748 137.338198,43.1249313 C136.70459,42.9447879 136.164159,42.7118437 135.716907,42.4260989 L134.747859,44.5132784 C135.219959,44.8238706 135.853567,45.0816621 136.648683,45.2866529 C137.443799,45.4916438 138.257551,45.5941392 139.089938,45.5941392 Z" id="path-2"></path>
    </defs>
    <g id="Artboard" stroke="none" stroke-width="1" fill="none" fill-rule="evenodd">
        <g id="logo/white-with-name" transform="translate(1.000000, 0.000000)">
            <g id="modified-logo/white-with-name" transform="translate(0.000000, 0.071622)">
                <g id="logo/white" transform="translate(0.640394, 0.000000)" fill="#FFFFFF">
                    <g id="logo/color">
                        <path d="M4.95702441,4.65381461 C3.3840884,6.68661905 1.84311848,8.74332486 0.333945402,10.8242711 C0.0983433196,11.1490587 0.218089515,11.6103047 0.582063522,11.7781229 C3.78171967,13.2525503 8.26729367,15.0593933 11.9608179,15.5806469 C12.5341785,15.6615047 12.908808,14.9931138 12.5406057,14.5452593 C10.5269091,12.0952824 7.56116369,7.54096646 6.01579625,4.73552004 C5.79541628,4.33546849 5.23643195,4.2927511 4.95702441,4.65381461" id="Fill-1" fill-rule="nonzero"></path>
                        <path d="M26.9103939,13.9379498 C16.5387477,12.4758387 4.97168496,18.5721101 2.49483048,30.2683228 C0.251464582,40.8630074 7.08909007,52.8540426 16.8351357,52.8540426 C11.9908949,48.6146134 8.27965515,42.3315423 9.41702276,35.5413216 C10.6375017,28.2547714 18.1531174,21.7671498 25.37283,25.5322255 C33.2134536,29.6210312 26.8850078,43.8611041 19.1816636,34.2073503 C17.2662166,40.7052839 21.2927625,47.0843753 27.4198972,48.7212839 C33.417352,50.3235371 38.1917405,46.7672382 40.7201758,41.2349167 C46.526183,28.5308295 40.0714527,15.7932706 26.9103939,13.9379498" id="Fill-4" fill-rule="nonzero"></path>
                        <path d="M12.7801311,0.197607187 C14.8146262,0.124010217 14.7513865,-0.00436055479 16.7882114,0.00344004102 C17.1741416,0.0049662475 17.465378,0.360063225 17.3974785,0.747210471 C16.7835519,4.24561087 16.2137266,9.98922802 14.7417341,13.6692468 C14.4964295,14.2826115 13.6074093,14.14644 13.5501606,13.4866109 C13.2419491,9.93123225 12.7927792,3.98819101 12.1938304,0.954604751 C12.1182754,0.57169693 12.3970302,0.211512609 12.7801311,0.197607187" id="Fill-6" fill-rule="nonzero"></path>
                    </g>
                </g>
                <g id="Blueberry" fill-rule="nonzero">
                    <use fill="#000000" xlink:href="#path-1"></use>
                    <use fill="#FFFFFF" xlink:href="#path-1"></use>
                </g>
                <g id="Pediatrics" fill-rule="nonzero">
                    <use fill="#000000" xlink:href="#path-2"></use>
                    <use fill="#FFFFFF" xlink:href="#path-2"></use>
                </g>
            </g>
        </g>
    </g>
</svg>